<?xml version="1.0" encoding="utf-8"?>
<!-- Generator: Adobe Illustrator 16.0.0, SVG Export Plug-In . SVG Version: 6.00 Build 0)  -->
<!DOCTYPE svg PUBLIC "-//W3C//DTD SVG 1.1//EN" "http://www.w3.org/Graphics/SVG/1.1/DTD/svg11.dtd">
<svg version="1.1" id="Layer_1" xmlns="http://www.w3.org/2000/svg" xmlns:xlink="http://www.w3.org/1999/xlink" x="0px" y="0px"
	 width="674px" height="176.174px" viewBox="0 0 674 176.174" enable-background="new 0 0 674 176.174" xml:space="preserve">
<g>
	<polygon fill="#586267" points="12.789,86.648 73.322,25.592 98.898,50.903 38.093,111.96 12.789,86.648 	"/>
	<path fill="#1F85C7" d="M75.408,149.274L49.58,123.176c8.343-41.744,38.09-24,54.006-68.102l26.622,25.576
		C114.285,125.526,86.372,105.703,75.408,149.274"/>
	<path fill="#586267" d="M162.505,68.174h7.27V54.416h3.065c7.792,0,13.977-3.072,13.977-11.533c0-8.674-7.217-10.951-15.122-10.951
		h-9.189V68.174L162.505,68.174z M169.774,37.632h2.549c3.741,0,6.905,1.457,6.905,5.661c0,4.211-3.271,5.409-6.905,5.409h-2.549
		V37.632L169.774,37.632z"/>
	<path fill="#586267" d="M196.939,54.158c0-3.999,2.178-7.958,6.7-7.958c4.568,0,6.747,3.847,6.747,7.958
		c0,4.462-1.397,9.243-6.747,9.243C198.336,63.4,196.939,58.574,196.939,54.158 M189.663,54.979c0,7.693,5.145,13.818,13.977,13.818
		c8.878,0,14.022-6.125,14.022-13.818c0-8.825-6.078-14.175-14.022-14.175C195.741,40.804,189.663,46.153,189.663,54.979"/>
	<path fill="#586267" d="M223.271,68.174h6.951v-9.812c0-3.84,0-10.911,5.668-10.911c1.251,0,2.489,0.205,3.111,0.576v-7.011
		c-0.722-0.212-1.45-0.212-2.132-0.212c-4.151,0-6.998,4.211-7.316,6.707h-0.106v-6.091h-6.177V68.174L223.271,68.174z"/>
	<path fill="#586267" d="M245.596,60.123c0,5.297,3.006,8.68,8.475,8.68c2.065,0,3.674-0.205,5.131-0.629l-0.212-5.495
		c-0.715,0.463-1.913,0.715-3.158,0.715c-2.642,0-3.271-2.125-3.271-4.416v-12.46h6.177v-5.092h-6.177v-7.581l-6.965,2.238v5.343
		h-5.138v5.092h5.138V60.123L245.596,60.123z"/>
	<path fill="#586267" d="M295.755,68.174h6.753v-38.95h-6.952v15.314h-0.112c-2.079-2.536-4.516-3.734-7.991-3.734
		c-8.21,0-11.229,6.541-11.229,13.923c0,7.323,3.019,14.076,11.229,14.076c3.271,0,6.118-1.033,8.203-3.635h0.1V68.174
		L295.755,68.174z M283.493,54.727c0-3.588,1.244-8.521,5.773-8.521c4.476,0,6.236,4.78,6.236,8.521c0,3.787-1.51,8.667-6.138,8.667
		C284.811,63.394,283.493,58.415,283.493,54.727"/>
	<path fill="#586267" d="M331.136,61.01c-2.602,1.457-5.508,2.701-8.892,2.701c-4.323,0-7.329-2.443-7.634-6.747h18.492
		c0-9.355-2.807-16.161-12.719-16.161c-8.315,0-12.427,6.389-12.427,14.135c0,8.772,5.144,13.857,13.977,13.857
		c3.733,0,6.641-0.715,9.203-2.125V61.01L331.136,61.01z M314.61,52.185c0.305-3.595,2.278-6.29,6.178-6.29
		c3.899,0,5.455,2.907,5.661,6.29H314.61L314.61,52.185z"/>
	<path fill="#586267" d="M357.818,68.174h12.666c4.568,0,12.778-1.337,12.778-10.487c0-4.469-3.37-7.792-8.303-8.263v-0.106
		c4.304-0.775,7.21-3.787,7.21-8.09c0-7.958-7.004-9.296-11.686-9.296h-12.666V68.174L357.818,68.174z M365.087,37.632h2.794
		c3.331,0,7.018,0.324,7.018,4.515c0,3.748-3.787,4.416-6.846,4.416h-2.966V37.632L365.087,37.632z M365.087,51.973h3.423
		c3.635,0,7.482,0.729,7.482,5.456c0,4.204-4.099,5.038-7.482,5.038h-3.423V51.973L365.087,51.973z"/>
	<path fill="#586267" d="M393.855,60.447c0-4.111,4.628-4.628,7.746-4.628h3.006c0,2.072-0.311,3.999-1.457,5.509
		c-1.086,1.443-2.754,2.39-4.879,2.39C395.775,63.718,393.855,62.725,393.855,60.447 M390.319,48.802
		c2.351-1.762,5.297-2.907,8.263-2.907c4.112,0,6.025,1.45,6.025,5.767h-3.847c-2.906,0-6.33,0.258-8.984,1.556
		c-2.642,1.304-4.562,3.635-4.562,7.634c0,5.098,4.615,7.951,9.342,7.951c3.171,0,6.654-1.662,8.263-4.621h0.093
		c0.06,0.821,0.06,2.595,0.324,3.992h6.125c-0.159-2.065-0.251-3.946-0.311-5.972c-0.053-1.967-0.113-3.992-0.113-6.707v-3.423
		c0-7.892-3.363-11.269-11.514-11.269c-2.966,0-6.614,0.781-9.315,2.032L390.319,48.802L390.319,48.802z"/>
	<path fill="#586267" d="M417.955,68.174h6.952v-9.812c0-3.84,0-10.911,5.661-10.911c1.258,0,2.502,0.205,3.131,0.576v-7.011
		c-0.742-0.212-1.457-0.212-2.139-0.212c-4.151,0-7.004,4.211-7.329,6.707h-0.099v-6.091h-6.177V68.174L417.955,68.174z"/>
	<path fill="#586267" d="M455.031,41.684c-1.92-0.569-3.946-0.88-6.74-0.88c-8.375,0-12.944,6.131-12.944,13.87
		c0,8.157,4.417,14.123,13.195,14.123c2.854,0,4.933-0.258,6.958-0.88l-0.305-5.767c-1.205,0.523-3.383,1.251-5.356,1.251
		c-4.893,0-7.21-3.794-7.21-8.727c0-5.038,2.741-8.475,7.058-8.475c2.125,0,3.482,0.431,4.727,0.993L455.031,41.684L455.031,41.684z
		"/>
	<path fill="#586267" d="M481.574,61.01c-2.602,1.457-5.508,2.701-8.892,2.701c-4.304,0-7.31-2.443-7.634-6.747h18.499
		c0-9.355-2.814-16.161-12.725-16.161c-8.316,0-12.427,6.389-12.427,14.135c0,8.772,5.144,13.857,13.983,13.857
		c3.748,0,6.654-0.715,9.196-2.125V61.01L481.574,61.01z M465.048,52.185c0.324-3.595,2.284-6.29,6.184-6.29
		c3.9,0,5.462,2.907,5.661,6.29H465.048L465.048,52.185z"/>
	<polygon fill="#586267" points="489.148,68.174 496.113,68.174 496.113,29.224 489.148,29.224 489.148,68.174 	"/>
	<path fill="#586267" d="M508.984,54.158c0-3.999,2.185-7.958,6.7-7.958c4.568,0,6.753,3.847,6.753,7.958
		c0,4.462-1.404,9.243-6.753,9.243C510.387,63.4,508.984,58.574,508.984,54.158 M501.714,54.979c0,7.693,5.144,13.818,13.97,13.818
		c8.872,0,14.036-6.125,14.036-13.818c0-8.825-6.084-14.175-14.036-14.175C507.786,40.804,501.714,46.153,501.714,54.979"/>
	<path fill="#586267" d="M535.156,68.174h6.958V55.091c0-3.43,1.093-8.892,6.138-8.892c4.463,0,4.516,4.423,4.516,7.693v14.281
		h6.965V51.298c0-6.032-2.754-10.494-9.091-10.494c-3.635,0-6.595,1.191-8.792,4.257h-0.1v-3.641h-6.594V68.174L535.156,68.174z"/>
	<path fill="#586267" d="M571.835,60.447c0-4.111,4.614-4.628,7.733-4.628h3.019c0,2.072-0.324,3.999-1.456,5.509
		c-1.105,1.443-2.768,2.39-4.893,2.39C573.748,63.718,571.835,62.725,571.835,60.447 M568.299,48.802
		c2.331-1.762,5.284-2.907,8.25-2.907c4.105,0,6.038,1.45,6.038,5.767h-3.847c-2.92,0-6.342,0.258-8.99,1.556
		c-2.655,1.304-4.568,3.635-4.568,7.634c0,5.098,4.627,7.951,9.354,7.951c3.158,0,6.634-1.662,8.243-4.621h0.112
		c0.06,0.821,0.06,2.595,0.312,3.992h6.117c-0.139-2.065-0.252-3.946-0.305-5.972c-0.039-1.967-0.1-3.992-0.1-6.707v-3.423
		c0-7.892-3.383-11.269-11.533-11.269c-2.959,0-6.594,0.781-9.295,2.032L568.299,48.802L568.299,48.802z"/>
</g>
<g>
	<path fill="#586267" d="M168.354,97.177l-6.448-10.383h4.87l4.385,7.715l4.474-7.715h4.517l-6.524,10.384l7.081,11.247h-4.942
		l-4.84-8.427l-4.899,8.427h-4.751L168.354,97.177z"/>
	<path fill="#586267" d="M184.395,93.302c1.73-0.787,3.525-1.19,5.382-1.21c4.509-0.061,6.733,2.18,6.672,6.721v2.043
		c0,1.554,0.023,2.886,0.069,3.996c0.039,1.181,0.098,2.372,0.176,3.572h-3.551c-0.118-0.969-0.176-1.766-0.176-2.392h-0.059
		c-0.479,0.868-1.15,1.539-2.011,2.013c-0.88,0.504-1.805,0.757-2.773,0.757c-1.399-0.021-2.632-0.434-3.699-1.241
		c-1.115-0.807-1.683-1.978-1.702-3.512c0-1.201,0.259-2.169,0.777-2.906c0.479-0.747,1.1-1.296,1.863-1.65
		c0.802-0.393,1.653-0.65,2.553-0.771c0.919-0.101,1.799-0.151,2.64-0.151h2.23c0-1.283-0.284-2.181-0.851-2.696
		c-0.557-0.505-1.438-0.758-2.641-0.758c-1.76,0.03-3.35,0.611-4.768,1.742L184.395,93.302z M186.565,103.816
		c0,0.659,0.25,1.145,0.749,1.459c0.459,0.334,1.061,0.501,1.805,0.501c1.242-0.02,2.181-0.496,2.817-1.428
		c0.588-0.932,0.871-2.031,0.851-3.297h-1.746c-0.225,0-0.455,0-0.689,0c-0.245,0-0.484,0.021-0.719,0.061
		c-0.528,0.061-1.022,0.182-1.482,0.364c-0.459,0.193-0.826,0.477-1.1,0.851C186.727,102.692,186.565,103.188,186.565,103.816z"/>
	<path fill="#586267" d="M201.054,92.455h3.574v3.631h0.059c0.127-0.827,0.566-1.685,1.318-2.572
		c0.742-0.908,1.714-1.382,2.916-1.422c0.4,0,0.811,0.041,1.23,0.121v4.186c-0.42-0.222-1.022-0.333-1.804-0.333
		c-0.802,0-1.422,0.227-1.862,0.681c-0.44,0.434-0.768,1.004-0.982,1.709c-0.205,0.656-0.328,1.356-0.367,2.103
		c-0.039,0.726-0.059,1.397-0.059,2.012v5.854h-4.023V92.455z"/>
	<path fill="#586267" d="M211.768,92.455h4.743l3.132,5.206l3.058-5.206h4.405l-4.768,7.599l5.389,8.371h-4.95l-3.572-5.932
		l-3.572,5.932h-4.406l5.314-8.372L211.768,92.455z"/>
	<path fill="#586267" d="M230.94,93.302c1.73-0.787,3.525-1.19,5.382-1.21c4.509-0.061,6.733,2.18,6.672,6.721v2.043
		c0,1.554,0.023,2.886,0.069,3.996c0.039,1.181,0.098,2.372,0.176,3.572h-3.551c-0.118-0.969-0.176-1.766-0.176-2.392h-0.059
		c-0.479,0.868-1.15,1.539-2.011,2.013c-0.88,0.504-1.805,0.757-2.773,0.757c-1.399-0.021-2.632-0.434-3.699-1.241
		c-1.115-0.807-1.683-1.978-1.702-3.512c0-1.201,0.259-2.169,0.777-2.906c0.479-0.747,1.1-1.296,1.863-1.65
		c0.802-0.393,1.653-0.65,2.553-0.771c0.919-0.101,1.799-0.151,2.64-0.151h2.23c0-1.283-0.284-2.181-0.851-2.696
		c-0.557-0.505-1.438-0.758-2.641-0.758c-1.76,0.03-3.35,0.611-4.768,1.742L230.94,93.302z M233.111,103.816
		c0,0.659,0.25,1.145,0.749,1.459c0.459,0.334,1.061,0.501,1.805,0.501c1.242-0.02,2.181-0.496,2.817-1.428
		c0.588-0.932,0.871-2.031,0.851-3.297h-1.746c-0.225,0-0.455,0-0.689,0c-0.245,0-0.484,0.021-0.719,0.061
		c-0.528,0.061-1.022,0.182-1.482,0.364c-0.459,0.193-0.826,0.477-1.1,0.851C233.272,102.692,233.111,103.188,233.111,103.816z"/>
	<path fill="#586267" d="M266.411,106.634h-0.059c-1.241,1.466-2.825,2.188-4.75,2.168c-2.346-0.051-4.017-0.908-5.014-2.573
		c-0.998-1.635-1.486-3.577-1.466-5.828c-0.021-2.28,0.468-4.223,1.466-5.828c0.997-1.614,2.668-2.442,5.014-2.482
		c1.945,0,3.484,0.742,4.618,2.227h0.073v-9.144h4.023v23.25h-3.906V106.634z M259.328,100.402
		c-0.021,1.154,0.224,2.293,0.732,3.417c0.253,0.497,0.6,0.912,1.039,1.246c0.419,0.354,0.961,0.531,1.624,0.531
		c0.703,0,1.273-0.177,1.712-0.531c0.458-0.334,0.814-0.749,1.068-1.246c0.283-0.516,0.482-1.078,0.6-1.686
		c0.098-0.597,0.146-1.174,0.146-1.731c0-1.205-0.269-2.339-0.805-3.402c-0.302-0.516-0.673-0.931-1.112-1.245
		c-0.458-0.304-1.015-0.456-1.668-0.456c-1.259,0.041-2.137,0.607-2.634,1.701c-0.244,0.506-0.415,1.058-0.512,1.655
		C259.391,99.252,259.328,99.834,259.328,100.402z"/>
	<path fill="#586267" d="M287.458,107.538c-1.419,0.843-3.19,1.265-5.313,1.265c-5.333-0.091-8.028-2.851-8.087-8.28
		c0-2.381,0.602-4.375,1.805-5.979c1.193-1.594,2.984-2.412,5.371-2.452c2.828,0.021,4.779,0.918,5.855,2.694
		c1.028,1.776,1.532,4.092,1.512,6.947H277.9c0.098,1.288,0.548,2.271,1.351,2.95c0.803,0.73,1.826,1.095,3.069,1.095
		c0.979,0,1.899-0.167,2.76-0.502c0.841-0.294,1.634-0.669,2.378-1.125V107.538z M284.76,98.89c-0.04-1.054-0.313-1.937-0.823-2.646
		c-0.519-0.72-1.336-1.095-2.453-1.125c-1.106,0.031-1.963,0.385-2.57,1.064c-0.598,0.71-0.936,1.612-1.014,2.708H284.76z"/>
	<path fill="#586267" d="M310.1,95.815c-0.599-0.233-1.182-0.41-1.75-0.531c-0.558-0.111-1.223-0.167-1.994-0.167
		c-0.579,0-1.116,0.116-1.613,0.348c-0.548,0.272-0.832,0.747-0.853,1.423c0.02,0.605,0.403,1.029,1.15,1.271
		c0.353,0.141,0.747,0.277,1.181,0.409c0.434,0.121,0.868,0.263,1.302,0.424c0.474,0.151,0.928,0.338,1.362,0.56
		c0.414,0.252,0.787,0.545,1.12,0.878c0.353,0.343,0.63,0.767,0.833,1.272c0.191,0.515,0.288,1.145,0.288,1.892
		c-0.05,1.837-0.729,3.169-2.038,3.997c-1.308,0.807-2.842,1.211-4.599,1.211c-1.568-0.021-3.122-0.247-4.66-0.679l0.243-3.409
		c1.306,0.708,2.677,1.062,4.115,1.062c0.577,0,1.164-0.146,1.762-0.439c0.627-0.263,0.951-0.768,0.972-1.516
		c0-0.414-0.096-0.757-0.289-1.03c-0.202-0.243-0.48-0.439-0.834-0.591c-0.729-0.283-1.558-0.55-2.489-0.803
		c-0.435-0.141-0.87-0.318-1.305-0.53c-0.435-0.202-0.83-0.47-1.184-0.803c-0.344-0.333-0.612-0.748-0.804-1.243
		c-0.223-0.475-0.334-1.065-0.334-1.773c0.02-1.738,0.665-2.995,1.936-3.773c1.19-0.788,2.61-1.182,4.26-1.182
		c0.97,0,1.811,0.051,2.521,0.151c0.7,0.121,1.355,0.267,1.965,0.439L310.1,95.815z"/>
	<path fill="#586267" d="M327.071,107.538c-1.419,0.843-3.19,1.265-5.313,1.265c-5.333-0.091-8.028-2.851-8.087-8.28
		c0-2.381,0.602-4.375,1.805-5.979c1.193-1.594,2.984-2.412,5.371-2.452c2.828,0.021,4.779,0.918,5.855,2.694
		c1.028,1.776,1.532,4.092,1.512,6.947h-10.702c0.098,1.288,0.548,2.271,1.351,2.95c0.803,0.73,1.826,1.095,3.069,1.095
		c0.979,0,1.899-0.167,2.76-0.502c0.841-0.294,1.634-0.669,2.378-1.125V107.538z M324.373,98.89
		c-0.04-1.054-0.313-1.937-0.823-2.646c-0.519-0.72-1.336-1.095-2.453-1.125c-1.106,0.031-1.963,0.385-2.57,1.064
		c-0.598,0.71-0.936,1.612-1.014,2.708H324.373z"/>
	<path fill="#586267" d="M331.911,92.455h3.809v2.18h0.059c1.289-1.715,2.984-2.563,5.083-2.543
		c1.816,0.021,3.155,0.611,4.014,1.771c0.82,1.15,1.23,2.644,1.23,4.48v10.081h-4.023v-8.533c0-0.515-0.015-1.046-0.044-1.591
		c-0.02-0.536-0.117-1.021-0.293-1.455c-0.137-0.475-0.385-0.859-0.747-1.152c-0.38-0.263-0.893-0.394-1.537-0.394
		c-0.713,0-1.289,0.177-1.728,0.531c-0.439,0.343-0.8,0.788-1.083,1.333c-0.263,0.536-0.444,1.102-0.542,1.697
		c-0.117,0.626-0.176,1.208-0.176,1.743v7.82h-4.023V92.455z"/>
	<path fill="#586267" d="M360.036,95.815c-0.599-0.233-1.182-0.41-1.75-0.531c-0.558-0.111-1.223-0.167-1.994-0.167
		c-0.579,0-1.116,0.116-1.613,0.348c-0.548,0.272-0.832,0.747-0.853,1.423c0.02,0.605,0.403,1.029,1.15,1.271
		c0.353,0.141,0.747,0.277,1.181,0.409c0.434,0.121,0.868,0.263,1.302,0.424c0.474,0.151,0.928,0.338,1.362,0.56
		c0.414,0.252,0.787,0.545,1.12,0.878c0.353,0.343,0.63,0.767,0.833,1.272c0.191,0.515,0.288,1.145,0.288,1.892
		c-0.05,1.837-0.729,3.169-2.038,3.997c-1.308,0.807-2.842,1.211-4.599,1.211c-1.568-0.021-3.122-0.247-4.66-0.679l0.243-3.409
		c1.306,0.708,2.677,1.062,4.115,1.062c0.577,0,1.164-0.146,1.762-0.439c0.627-0.263,0.951-0.768,0.972-1.516
		c0-0.414-0.096-0.757-0.289-1.03c-0.202-0.243-0.48-0.439-0.834-0.591c-0.729-0.283-1.558-0.55-2.489-0.803
		c-0.435-0.141-0.87-0.318-1.305-0.53c-0.435-0.202-0.83-0.47-1.184-0.803c-0.344-0.333-0.612-0.748-0.804-1.243
		c-0.223-0.475-0.334-1.065-0.334-1.773c0.02-1.738,0.665-2.995,1.936-3.773c1.19-0.788,2.61-1.182,4.26-1.182
		c0.97,0,1.811,0.051,2.521,0.151c0.7,0.121,1.355,0.267,1.965,0.439L360.036,95.815z"/>
	<path fill="#586267" d="M363.607,100.553c0.02-2.664,0.797-4.743,2.332-6.236c1.506-1.463,3.423-2.205,5.75-2.225
		c2.356,0.021,4.288,0.762,5.794,2.225c1.516,1.494,2.288,3.572,2.317,6.236c0,2.331-0.704,4.274-2.112,5.828
		c-1.398,1.564-3.398,2.371-5.999,2.422c-2.572-0.051-4.557-0.857-5.955-2.422C364.316,104.827,363.607,102.884,363.607,100.553z
		 M367.813,100.053c0,0.313,0.024,0.627,0.073,0.941c0.039,0.344,0.088,0.673,0.147,0.987c0.117,0.668,0.317,1.271,0.601,1.807
		c0.293,0.537,0.694,0.962,1.202,1.276c0.479,0.354,1.1,0.531,1.862,0.531c0.772,0,1.422-0.167,1.95-0.501
		c0.498-0.314,0.898-0.739,1.202-1.276c0.293-0.536,0.494-1.139,0.601-1.807c0.098-0.638,0.146-1.291,0.146-1.958
		c0-1.286-0.313-2.395-0.938-3.326c-0.655-0.931-1.642-1.407-2.961-1.427c-1.28,0.021-2.243,0.506-2.888,1.458
		C368.145,97.688,367.813,98.787,367.813,100.053z"/>
	<path fill="#586267" d="M383.633,92.455h3.574v3.631h0.059c0.127-0.827,0.566-1.685,1.318-2.572
		c0.742-0.908,1.714-1.382,2.916-1.422c0.4,0,0.811,0.041,1.23,0.121v4.186c-0.42-0.222-1.022-0.333-1.804-0.333
		c-0.802,0-1.422,0.227-1.862,0.681c-0.44,0.434-0.768,1.004-0.982,1.709c-0.205,0.656-0.328,1.356-0.367,2.103
		c-0.039,0.726-0.059,1.397-0.059,2.012v5.854h-4.023V92.455z"/>
	<path fill="#586267" d="M404.795,95.815c-0.599-0.233-1.182-0.41-1.75-0.531c-0.558-0.111-1.223-0.167-1.994-0.167
		c-0.579,0-1.116,0.116-1.613,0.348c-0.548,0.272-0.832,0.747-0.853,1.423c0.02,0.605,0.403,1.029,1.15,1.271
		c0.353,0.141,0.747,0.277,1.181,0.409c0.434,0.121,0.868,0.263,1.302,0.424c0.474,0.151,0.928,0.338,1.362,0.56
		c0.414,0.252,0.787,0.545,1.12,0.878c0.353,0.343,0.63,0.767,0.833,1.272c0.191,0.515,0.288,1.145,0.288,1.892
		c-0.05,1.837-0.729,3.169-2.038,3.997c-1.308,0.807-2.842,1.211-4.599,1.211c-1.568-0.021-3.122-0.247-4.66-0.679l0.243-3.409
		c1.306,0.708,2.677,1.062,4.115,1.062c0.577,0,1.164-0.146,1.762-0.439c0.627-0.263,0.951-0.768,0.972-1.516
		c0-0.414-0.096-0.757-0.289-1.03c-0.202-0.243-0.48-0.439-0.834-0.591c-0.729-0.283-1.558-0.55-2.489-0.803
		c-0.435-0.141-0.87-0.318-1.305-0.53c-0.435-0.202-0.83-0.47-1.184-0.803c-0.344-0.333-0.612-0.748-0.804-1.243
		c-0.223-0.475-0.334-1.065-0.334-1.773c0.02-1.738,0.665-2.995,1.936-3.773c1.19-0.788,2.61-1.182,4.26-1.182
		c0.97,0,1.811,0.051,2.521,0.151c0.7,0.121,1.355,0.267,1.965,0.439L404.795,95.815z"/>
	<path fill="#586267" d="M428.268,106.634h-0.059c-1.241,1.466-2.825,2.188-4.75,2.168c-2.346-0.051-4.017-0.908-5.014-2.573
		c-0.998-1.635-1.486-3.577-1.466-5.828c-0.021-2.28,0.468-4.223,1.466-5.828c0.997-1.614,2.668-2.442,5.014-2.482
		c1.945,0,3.484,0.742,4.618,2.227h0.073v-9.144h4.023v23.25h-3.906V106.634z M421.185,100.402
		c-0.021,1.154,0.224,2.293,0.732,3.417c0.253,0.497,0.6,0.912,1.039,1.246c0.419,0.354,0.961,0.531,1.624,0.531
		c0.703,0,1.273-0.177,1.712-0.531c0.458-0.334,0.814-0.749,1.068-1.246c0.283-0.516,0.482-1.078,0.6-1.686
		c0.098-0.597,0.146-1.174,0.146-1.731c0-1.205-0.269-2.339-0.805-3.402c-0.302-0.516-0.673-0.931-1.112-1.245
		c-0.458-0.304-1.015-0.456-1.668-0.456c-1.259,0.041-2.137,0.607-2.634,1.701c-0.244,0.506-0.415,1.058-0.512,1.655
		C421.248,99.252,421.185,99.834,421.185,100.402z"/>
	<path fill="#586267" d="M449.315,107.538c-1.419,0.843-3.19,1.265-5.313,1.265c-5.333-0.091-8.028-2.851-8.087-8.28
		c0-2.381,0.602-4.375,1.805-5.979c1.193-1.594,2.984-2.412,5.371-2.452c2.828,0.021,4.779,0.918,5.855,2.694
		c1.028,1.776,1.532,4.092,1.512,6.947h-10.702c0.098,1.288,0.548,2.271,1.351,2.95c0.803,0.73,1.826,1.095,3.069,1.095
		c0.979,0,1.899-0.167,2.76-0.502c0.841-0.294,1.634-0.669,2.378-1.125V107.538z M446.617,98.89
		c-0.04-1.054-0.313-1.937-0.823-2.646c-0.519-0.72-1.336-1.095-2.453-1.125c-1.106,0.031-1.963,0.385-2.57,1.064
		c-0.598,0.71-0.936,1.612-1.014,2.708H446.617z"/>
	<path fill="#586267" d="M472.792,95.892c-0.342-0.192-0.724-0.339-1.144-0.44c-0.44-0.101-0.968-0.152-1.584-0.152
		c-1.241,0.021-2.223,0.476-2.946,1.367c-0.763,0.911-1.144,2.146-1.144,3.706c0,1.488,0.352,2.718,1.056,3.69
		c0.684,1.002,1.725,1.514,3.124,1.534c0.576,0,1.158-0.096,1.745-0.289c0.557-0.142,1.007-0.298,1.349-0.471l0.176,3.44
		c-0.558,0.181-1.16,0.301-1.805,0.361c-0.636,0.11-1.375,0.166-2.216,0.166c-2.525-0.021-4.418-0.827-5.68-2.422
		c-1.302-1.554-1.952-3.557-1.952-6.009c0-2.381,0.65-4.349,1.952-5.903c1.282-1.564,3.126-2.356,5.533-2.376
		c1.556,0,2.857,0.176,3.904,0.527L472.792,95.892z"/>
	<path fill="#586267" d="M475.528,100.553c0.02-2.664,0.797-4.743,2.332-6.236c1.506-1.463,3.423-2.205,5.75-2.225
		c2.356,0.021,4.288,0.762,5.794,2.225c1.516,1.494,2.288,3.572,2.317,6.236c0,2.331-0.704,4.274-2.112,5.828
		c-1.398,1.564-3.398,2.371-5.999,2.422c-2.572-0.051-4.557-0.857-5.955-2.422C476.237,104.827,475.528,102.884,475.528,100.553z
		 M479.733,100.053c0,0.313,0.024,0.627,0.073,0.941c0.039,0.344,0.088,0.673,0.147,0.987c0.117,0.668,0.317,1.271,0.601,1.807
		c0.293,0.537,0.694,0.962,1.202,1.276c0.479,0.354,1.1,0.531,1.862,0.531c0.772,0,1.422-0.167,1.95-0.501
		c0.498-0.314,0.898-0.739,1.202-1.276c0.293-0.536,0.494-1.139,0.601-1.807c0.098-0.638,0.146-1.291,0.146-1.958
		c0-1.286-0.313-2.395-0.938-3.326c-0.655-0.931-1.642-1.407-2.961-1.427c-1.28,0.021-2.243,0.506-2.888,1.458
		C480.065,97.688,479.733,98.787,479.733,100.053z"/>
	<path fill="#586267" d="M495.463,92.455h3.809v2.18h0.059c1.289-1.715,2.984-2.563,5.083-2.543
		c1.816,0.021,3.155,0.611,4.014,1.771c0.82,1.15,1.23,2.644,1.23,4.48v10.081h-4.023v-8.533c0-0.515-0.015-1.046-0.044-1.591
		c-0.02-0.536-0.117-1.021-0.293-1.455c-0.137-0.475-0.385-0.859-0.747-1.152c-0.38-0.263-0.893-0.394-1.537-0.394
		c-0.713,0-1.289,0.177-1.728,0.531c-0.439,0.343-0.8,0.788-1.083,1.333c-0.263,0.536-0.444,1.102-0.542,1.697
		c-0.117,0.626-0.176,1.208-0.176,1.743v7.82h-4.023V92.455z"/>
	<path fill="#586267" d="M515.716,95.481h-2.965v-3.026h2.965v-3.194l4.024-1.332v4.526h3.583v3.026h-3.583v7.472
		c-0.021,0.699,0.106,1.296,0.381,1.792c0.265,0.547,0.77,0.831,1.513,0.851c0.764,0,1.376-0.146,1.836-0.44l0.117,3.271
		c-0.801,0.251-1.793,0.377-2.976,0.377c-3.244-0.091-4.876-1.813-4.896-5.167V95.481z"/>
	<path fill="#586267" d="M527.137,93.302c1.73-0.787,3.524-1.19,5.382-1.21c4.509-0.061,6.733,2.18,6.673,6.721v2.043
		c0,1.554,0.022,2.886,0.068,3.996c0.039,1.181,0.098,2.372,0.176,3.572h-3.551c-0.118-0.969-0.177-1.766-0.177-2.392h-0.059
		c-0.479,0.868-1.149,1.539-2.011,2.013c-0.88,0.504-1.805,0.757-2.773,0.757c-1.398-0.021-2.632-0.434-3.698-1.241
		c-1.115-0.807-1.683-1.978-1.702-3.512c0-1.201,0.259-2.169,0.777-2.906c0.479-0.747,1.1-1.296,1.863-1.65
		c0.802-0.393,1.652-0.65,2.552-0.771c0.92-0.101,1.8-0.151,2.641-0.151h2.23c0-1.283-0.284-2.181-0.852-2.696
		c-0.558-0.505-1.438-0.758-2.641-0.758c-1.761,0.03-3.35,0.611-4.768,1.742L527.137,93.302z M529.307,103.816
		c0,0.659,0.249,1.145,0.748,1.459c0.46,0.334,1.062,0.501,1.805,0.501c1.242-0.02,2.182-0.496,2.817-1.428
		c0.588-0.932,0.871-2.031,0.852-3.297h-1.746c-0.226,0-0.455,0-0.69,0c-0.244,0-0.484,0.021-0.719,0.061
		c-0.528,0.061-1.021,0.182-1.481,0.364c-0.46,0.193-0.827,0.477-1.101,0.851C529.468,102.692,529.307,103.188,529.307,103.816z"/>
	<path fill="#586267" d="M543.338,92.455h3.855v2.24h0.061c0.683-0.969,1.445-1.65,2.289-2.043c0.843-0.373,1.656-0.56,2.439-0.56
		c2.219-0.02,3.78,0.918,4.684,2.815c0.513-0.969,1.23-1.68,2.154-2.134c0.883-0.454,1.822-0.681,2.816-0.681
		c1.927,0.021,3.263,0.611,4.006,1.771c0.692,1.15,1.029,2.644,1.009,4.48v10.081h-4.026v-9.533
		c0.021-0.808-0.073-1.591-0.279-2.349c-0.155-0.374-0.394-0.677-0.714-0.909c-0.331-0.222-0.817-0.333-1.459-0.333
		c-0.693,0-1.242,0.177-1.646,0.531c-0.445,0.343-0.776,0.798-0.993,1.364c-0.207,0.536-0.342,1.102-0.403,1.697
		c-0.083,0.647-0.124,1.238-0.124,1.773v7.76h-4.024v-9.533c0.021-0.808-0.072-1.591-0.279-2.349
		c-0.155-0.374-0.388-0.677-0.698-0.909c-0.341-0.222-0.833-0.333-1.475-0.333c-0.693,0-1.241,0.177-1.645,0.531
		c-0.445,0.343-0.776,0.798-0.994,1.364c-0.207,0.536-0.341,1.102-0.403,1.697c-0.083,0.647-0.124,1.238-0.124,1.773v7.76h-4.026
		V92.455z"/>
	<path fill="#586267" d="M571.359,85.583h4.023v3.966h-4.023V85.583z M571.359,92.455h4.023v15.969h-4.023V92.455z"/>
	<path fill="#586267" d="M579.882,92.455h3.809v2.18h0.059c1.289-1.715,2.983-2.563,5.084-2.543
		c1.816,0.021,3.154,0.611,4.014,1.771c0.82,1.15,1.23,2.644,1.23,4.48v10.081h-4.023v-8.533c0-0.515-0.015-1.046-0.044-1.591
		c-0.02-0.536-0.117-1.021-0.293-1.455c-0.137-0.475-0.386-0.859-0.746-1.152c-0.381-0.263-0.894-0.394-1.537-0.394
		c-0.713,0-1.289,0.177-1.728,0.531c-0.439,0.343-0.801,0.788-1.083,1.333c-0.264,0.536-0.444,1.102-0.542,1.697
		c-0.117,0.626-0.176,1.208-0.176,1.743v7.82h-4.023V92.455z"/>
	<path fill="#586267" d="M599.49,93.302c1.73-0.787,3.524-1.19,5.382-1.21c4.509-0.061,6.733,2.18,6.673,6.721v2.043
		c0,1.554,0.022,2.886,0.068,3.996c0.039,1.181,0.098,2.372,0.176,3.572h-3.551c-0.118-0.969-0.177-1.766-0.177-2.392h-0.059
		c-0.479,0.868-1.149,1.539-2.011,2.013c-0.88,0.504-1.805,0.757-2.773,0.757c-1.398-0.021-2.632-0.434-3.698-1.241
		c-1.115-0.807-1.683-1.978-1.702-3.512c0-1.201,0.259-2.169,0.777-2.906c0.479-0.747,1.1-1.296,1.863-1.65
		c0.802-0.393,1.652-0.65,2.552-0.771c0.92-0.101,1.8-0.151,2.641-0.151h2.23c0-1.283-0.284-2.181-0.852-2.696
		c-0.558-0.505-1.438-0.758-2.641-0.758c-1.761,0.03-3.35,0.611-4.768,1.742L599.49,93.302z M601.66,103.816
		c0,0.659,0.249,1.145,0.748,1.459c0.46,0.334,1.062,0.501,1.805,0.501c1.242-0.02,2.182-0.496,2.817-1.428
		c0.588-0.932,0.871-2.031,0.852-3.297h-1.746c-0.226,0-0.455,0-0.69,0c-0.244,0-0.484,0.021-0.719,0.061
		c-0.528,0.061-1.021,0.182-1.481,0.364c-0.46,0.193-0.827,0.477-1.101,0.851C601.821,102.692,601.66,103.188,601.66,103.816z"/>
	<path fill="#586267" d="M626.082,95.892c-0.343-0.192-0.725-0.339-1.145-0.44c-0.44-0.101-0.968-0.152-1.584-0.152
		c-1.241,0.021-2.224,0.476-2.946,1.367c-0.763,0.911-1.144,2.146-1.144,3.706c0,1.488,0.352,2.718,1.056,3.69
		c0.685,1.002,1.726,1.514,3.123,1.534c0.577,0,1.158-0.096,1.745-0.289c0.557-0.142,1.007-0.298,1.349-0.471l0.177,3.44
		c-0.559,0.181-1.16,0.301-1.806,0.361c-0.637,0.11-1.375,0.166-2.217,0.166c-2.524-0.021-4.418-0.827-5.68-2.422
		c-1.302-1.554-1.952-3.557-1.952-6.009c0-2.381,0.65-4.349,1.952-5.903c1.282-1.564,3.126-2.356,5.533-2.376
		c1.556,0,2.857,0.176,3.904,0.527L626.082,95.892z"/>
	<path fill="#586267" d="M629.908,85.583h4.023v3.966h-4.023V85.583z M629.908,92.455h4.023v15.969h-4.023V92.455z"/>
	<path fill="#586267" d="M637.432,100.553c0.02-2.664,0.797-4.743,2.332-6.236c1.506-1.463,3.423-2.205,5.75-2.225
		c2.356,0.021,4.288,0.762,5.794,2.225c1.516,1.494,2.288,3.572,2.317,6.236c0,2.331-0.704,4.274-2.112,5.828
		c-1.398,1.564-3.397,2.371-5.999,2.422c-2.572-0.051-4.557-0.857-5.955-2.422C638.141,104.827,637.432,102.884,637.432,100.553z
		 M641.637,100.053c0,0.313,0.024,0.627,0.073,0.941c0.039,0.344,0.088,0.673,0.146,0.987c0.117,0.668,0.317,1.271,0.602,1.807
		c0.293,0.537,0.693,0.962,1.201,1.276c0.479,0.354,1.1,0.531,1.861,0.531c0.772,0,1.422-0.167,1.95-0.501
		c0.498-0.314,0.898-0.739,1.201-1.276c0.294-0.536,0.494-1.139,0.602-1.807c0.098-0.638,0.146-1.291,0.146-1.958
		c0-1.286-0.313-2.395-0.938-3.326c-0.654-0.931-1.642-1.407-2.961-1.427c-1.279,0.021-2.242,0.506-2.887,1.458
		C641.969,97.688,641.637,98.787,641.637,100.053z M646.2,85.781h4.11l-4.11,4.508h-2.487L646.2,85.781z"/>
	<path fill="#586267" d="M162.68,129.655h3.855v2.24h0.06c0.683-0.969,1.446-1.65,2.29-2.043c0.843-0.373,1.656-0.56,2.439-0.56
		c2.219-0.02,3.78,0.918,4.684,2.815c0.512-0.969,1.229-1.68,2.153-2.134c0.884-0.454,1.822-0.681,2.816-0.681
		c1.928,0.021,3.263,0.611,4.006,1.771c0.692,1.15,1.029,2.644,1.009,4.48v10.081h-4.026v-9.533c0.02-0.808-0.073-1.591-0.279-2.349
		c-0.155-0.374-0.394-0.677-0.714-0.909c-0.332-0.222-0.818-0.333-1.459-0.333c-0.693,0-1.242,0.177-1.645,0.531
		c-0.445,0.343-0.776,0.798-0.993,1.364c-0.207,0.536-0.342,1.102-0.404,1.697c-0.083,0.647-0.124,1.238-0.124,1.773v7.76h-4.023
		v-9.533c0.02-0.808-0.073-1.591-0.279-2.349c-0.155-0.374-0.388-0.677-0.699-0.909c-0.341-0.222-0.833-0.333-1.475-0.333
		c-0.693,0-1.242,0.177-1.645,0.531c-0.445,0.343-0.776,0.798-0.993,1.364c-0.207,0.536-0.342,1.102-0.404,1.697
		c-0.083,0.647-0.124,1.238-0.124,1.773v7.76h-4.026V129.655z"/>
	<path fill="#586267" d="M191.282,130.502c1.73-0.787,3.525-1.19,5.382-1.21c4.509-0.061,6.733,2.18,6.672,6.721v2.043
		c0,1.554,0.023,2.886,0.069,3.996c0.039,1.181,0.098,2.372,0.176,3.572h-3.551c-0.118-0.969-0.176-1.766-0.176-2.392h-0.059
		c-0.479,0.868-1.15,1.539-2.011,2.013c-0.88,0.504-1.805,0.757-2.773,0.757c-1.399-0.021-2.632-0.434-3.699-1.241
		c-1.115-0.807-1.683-1.978-1.702-3.512c0-1.201,0.259-2.169,0.777-2.906c0.479-0.747,1.1-1.296,1.863-1.65
		c0.802-0.393,1.653-0.65,2.553-0.771c0.919-0.101,1.799-0.151,2.64-0.151h2.23c0-1.283-0.284-2.181-0.851-2.696
		c-0.557-0.505-1.438-0.758-2.641-0.758c-1.76,0.03-3.35,0.611-4.768,1.742L191.282,130.502z M193.453,141.017
		c0,0.659,0.25,1.145,0.749,1.459c0.459,0.334,1.061,0.501,1.805,0.501c1.242-0.02,2.181-0.496,2.817-1.428
		c0.588-0.932,0.871-2.031,0.851-3.297h-1.746c-0.225,0-0.455,0-0.689,0c-0.245,0-0.484,0.021-0.719,0.061
		c-0.528,0.061-1.022,0.182-1.482,0.364c-0.459,0.193-0.826,0.477-1.1,0.851C193.614,139.893,193.453,140.389,193.453,141.017z"/>
	<path fill="#586267" d="M207.941,129.655h3.574v3.631h0.059c0.127-0.827,0.566-1.685,1.318-2.572
		c0.742-0.908,1.714-1.382,2.916-1.422c0.4,0,0.811,0.041,1.23,0.121v4.186c-0.42-0.222-1.022-0.333-1.804-0.333
		c-0.802,0-1.422,0.227-1.862,0.681c-0.44,0.434-0.768,1.004-0.982,1.709c-0.205,0.656-0.328,1.356-0.367,2.103
		c-0.039,0.726-0.059,1.397-0.059,2.012v5.854h-4.023V129.655z"/>
	<path fill="#586267" d="M220.005,122.783h4.023v3.966h-4.023V122.783z M220.005,129.655h4.023v15.969h-4.023V129.655z"/>
	<path fill="#586267" d="M228.527,129.655h3.809v2.18h0.059c1.289-1.715,2.984-2.563,5.083-2.543
		c1.816,0.021,3.155,0.611,4.014,1.771c0.82,1.15,1.23,2.644,1.23,4.48v10.081h-4.023v-8.533c0-0.515-0.015-1.046-0.044-1.591
		c-0.02-0.536-0.117-1.021-0.293-1.455c-0.137-0.475-0.385-0.859-0.747-1.152c-0.38-0.263-0.893-0.394-1.537-0.394
		c-0.713,0-1.289,0.177-1.728,0.531c-0.439,0.343-0.8,0.788-1.083,1.333c-0.263,0.536-0.444,1.102-0.542,1.697
		c-0.117,0.626-0.176,1.208-0.176,1.743v7.82h-4.023V129.655z"/>
	<path fill="#586267" d="M248.136,130.502c1.73-0.787,3.525-1.19,5.382-1.21c4.509-0.061,6.733,2.18,6.672,6.721v2.043
		c0,1.554,0.023,2.886,0.069,3.996c0.039,1.181,0.098,2.372,0.176,3.572h-3.551c-0.118-0.969-0.176-1.766-0.176-2.392h-0.059
		c-0.479,0.868-1.15,1.539-2.011,2.013c-0.88,0.504-1.805,0.757-2.773,0.757c-1.399-0.021-2.632-0.434-3.699-1.241
		c-1.115-0.807-1.683-1.978-1.702-3.512c0-1.201,0.259-2.169,0.777-2.906c0.479-0.747,1.1-1.296,1.863-1.65
		c0.802-0.393,1.653-0.65,2.553-0.771c0.919-0.101,1.799-0.151,2.64-0.151h2.23c0-1.283-0.284-2.181-0.851-2.696
		c-0.557-0.505-1.438-0.758-2.641-0.758c-1.76,0.03-3.35,0.611-4.768,1.742L248.136,130.502z M250.306,141.017
		c0,0.659,0.25,1.145,0.749,1.459c0.459,0.334,1.061,0.501,1.805,0.501c1.242-0.02,2.181-0.496,2.817-1.428
		c0.588-0.932,0.871-2.031,0.851-3.297h-1.746c-0.225,0-0.455,0-0.689,0c-0.245,0-0.484,0.021-0.719,0.061
		c-0.528,0.061-1.022,0.182-1.482,0.364c-0.459,0.193-0.826,0.477-1.1,0.851C250.467,139.893,250.306,140.389,250.306,141.017z"/>
</g>
</svg>
